<?xml version="1.0" standalone="no"?>
<!DOCTYPE svg PUBLIC "-//W3C//DTD SVG 1.1//EN" "http://www.w3.org/Graphics/SVG/1.1/DTD/svg11.dtd">
<svg width="47mm" height="39mm" viewBox="-15 -38 47 39" xmlns="http://www.w3.org/2000/svg" version="1.1">
<title>OpenSCAD Model</title>
<path d="
M 5.82867,-19.5681 L 5.82867,-20.925 L 6.5663,-20.925 L 7.09549,-21.8564 L 7.16685,-21.9663 L 5.82867,-21.9663
 L 5.82867,-26.0531 L 10.3645,-26.0531 L 11.0955,-26.6964 L 11.7024,-27.097 L 11.4369,-27.097 L 11.4266,-27.3079
 L 11.413,-27.518 L 11.3961,-27.7272 L 11.376,-27.9356 L 11.3527,-28.1432 L 11.3262,-28.3498 L 11.2966,-28.5557
 L 11.264,-28.7606 L 11.2283,-28.9648 L 11.1897,-29.1681 L 11.1481,-29.3705 L 11.1036,-29.5721 L 11.0563,-29.7729
 L 11.0061,-29.9728 L 10.9532,-30.1719 L 10.8976,-30.3702 L 10.8393,-30.5677 L 10.7784,-30.7643 L 10.7149,-30.9601
 L 10.6488,-31.155 L 13.89,-31.155 L 13.9852,-30.9721 L 14.0766,-30.7867 L 14.164,-30.5989 L 14.2475,-30.4088
 L 14.3271,-30.2163 L 14.4027,-30.0217 L 14.4742,-29.8248 L 14.5417,-29.6259 L 14.605,-29.4249 L 14.6641,-29.2219
 L 14.7191,-29.017 L 14.7698,-28.8102 L 14.8162,-28.6017 L 14.8582,-28.3914 L 14.8926,-28.198 L 15.6545,-28.198
 L 15.9722,-28.1281 L 15.9536,-28.2554 L 15.906,-28.5314 L 15.8514,-28.8052 L 15.7898,-29.0764 L 15.7214,-29.3452
 L 15.6462,-29.6111 L 15.5643,-29.8742 L 15.4758,-30.1342 L 15.3808,-30.3911 L 15.2793,-30.6446 L 15.1714,-30.8947
 L 15.0573,-31.1411 L 14.937,-31.3837 L 14.8106,-31.6224 L 14.6781,-31.857 L 14.6738,-31.8654 L 14.6695,-31.8733
 L 14.6652,-31.8808 L 14.6609,-31.8879 L 14.6566,-31.8947 L 14.6524,-31.9011 L 14.6481,-31.9072 L 14.6439,-31.913
 L 14.6396,-31.9185 L 14.6354,-31.9238 L 14.6312,-31.9289 L 14.627,-31.9338 L 14.6229,-31.9386 L 14.6188,-31.9431
 L 14.6106,-31.952 L 14.5986,-31.9649 L 14.5946,-31.9692 L 14.3036,-32.4388 L 13.9894,-32.892 L 13.6527,-33.3279
 L 13.2944,-33.7457 L 12.9153,-34.1446 L 12.5163,-34.5238 L 12.0981,-34.8824 L 11.6615,-35.2195 L 11.2075,-35.5345
 L 10.7368,-35.8264 L 10.2503,-36.0944 L 9.74875,-36.3377 L 9.23297,-36.5554 L 8.7038,-36.7469 L 8.16206,-36.9111
 L 7.6086,-37.0473 L 7.04419,-37.1547 L 6.4697,-37.2324 L 5.88593,-37.2797 L 5.29369,-37.2956 L 4.70555,-37.2797
 L 4.12543,-37.2324 L 3.55417,-37.1547 L 2.99257,-37.0473 L 2.44145,-36.9111 L 1.90166,-36.7469 L 1.37399,-36.5554
 L 0.859299,-36.3377 L 0.358368,-36.0944 L -0.127945,-35.8264 L -0.598846,-35.5345 L -1.0535,-35.2195 L -1.49109,-34.8824
 L -1.91078,-34.5238 L -2.31177,-34.1447 L -2.69322,-33.7458 L -3.05432,-33.328 L -3.39424,-32.892 L -3.71216,-32.4389
 L -4.00725,-31.9692 L -4.01155,-31.9647 L -4.01585,-31.9599 L -4.02016,-31.9547 L -4.02446,-31.9493 L -4.02875,-31.9436
 L -4.03302,-31.9378 L -4.03728,-31.9317 L -4.04153,-31.9256 L -4.04999,-31.9131 L -4.0625,-31.8945 L -4.06664,-31.8885
 L -4.07072,-31.8826 L -4.0748,-31.877 L -4.07884,-31.8715 L -4.08284,-31.8664 L -4.08682,-31.8615 L -4.09076,-31.857
 L -4.22321,-31.6226 L -4.34964,-31.3845 L -4.46994,-31.1427 L -4.58406,-30.8974 L -4.69189,-30.6487 L -4.79337,-30.3966
 L -4.88838,-30.1411 L -4.97688,-29.8825 L -5.05878,-29.6208 L -5.13399,-29.356 L -5.20242,-29.0882 L -5.26399,-28.8176
 L -5.31863,-28.5442 L -5.36626,-28.2681 L -5.40678,-27.9893 L -5.44012,-27.7081 L -5.46619,-27.4244 L -5.48491,-27.1383
 L -5.49622,-26.8499 L -5.5,-26.5594 L -5.46431,-25.6761 L -5.35909,-24.8126 L -5.1871,-23.9715 L -4.95113,-23.1557
 L -4.65392,-22.3678 L -4.29826,-21.6107 L -3.88693,-20.8871 L -3.42268,-20.1998 L -3.38571,-20.1533 L -2.41327,-20.6395
 L -2.41463,-20.6412 L -2.62672,-20.925 L -1.51378,-20.925 L -0.84549,-21.1255 L 0.154495,-21.2255 L 1.1545,-21.1255
 L 1.8228,-20.925 L 4.78481,-20.925 L 4.78481,-19.0582 L 5.1545,-18.7255 L 5.31433,-18.5497 z
M 5.82867,-32.2276 L 5.82867,-36.1447 L 6.02956,-35.9783 L 6.22661,-35.8084 L 6.41977,-35.6352 L 6.60896,-35.4588
 L 6.79413,-35.2791 L 6.9752,-35.0963 L 7.1521,-34.9103 L 7.32475,-34.7212 L 7.4931,-34.5291 L 7.65709,-34.334
 L 7.81662,-34.1359 L 7.97165,-33.9349 L 8.12209,-33.731 L 8.26788,-33.5244 L 8.40897,-33.3149 L 8.54526,-33.1027
 L 8.6767,-32.8879 L 8.80322,-32.6704 L 8.92474,-32.4503 L 9.04121,-32.2276 z
M 1.62709,-32.225 L 1.74371,-32.4437 L 1.86494,-32.6599 L 1.99075,-32.8734 L 2.12108,-33.0844 L 2.25589,-33.2927
 L 2.39513,-33.4984 L 2.53876,-33.7014 L 2.68674,-33.9017 L 2.839,-34.0993 L 2.99553,-34.2942 L 3.15627,-34.4863
 L 3.32115,-34.6756 L 3.49017,-34.8621 L 3.66325,-35.0458 L 3.84038,-35.2266 L 4.02147,-35.4046 L 4.20651,-35.5797
 L 4.39545,-35.7518 L 4.58823,-35.9211 L 4.78481,-36.0874 L 4.78481,-32.225 z
M -2.62672,-32.1963 L -2.41461,-32.4842 L -2.19263,-32.7638 L -1.961,-33.0348 L -1.71999,-33.297 L -1.46985,-33.5499
 L -1.21085,-33.7934 L -0.943207,-34.0272 L -0.667191,-34.2511 L -0.383072,-34.4646 L -0.0910797,-34.6677 L 0.208511,-34.8599
 L 0.515488,-35.0411 L 0.829559,-35.2109 L 1.1505,-35.369 L 1.47804,-35.5153 L 1.81192,-35.6494 L 2.15192,-35.7711
 L 2.49774,-35.88 L 2.84918,-35.976 L 3.20595,-36.0586 L 3.03445,-35.8883 L 2.86676,-35.7154 L 2.70285,-35.54
 L 2.54271,-35.3621 L 2.38631,-35.1817 L 2.2336,-34.999 L 2.08458,-34.8138 L 1.93922,-34.6262 L 1.7975,-34.4362
 L 1.65938,-34.2439 L 1.52484,-34.0493 L 1.39386,-33.8523 L 1.26642,-33.6531 L 1.14247,-33.4516 L 1.022,-33.2479
 L 0.904999,-33.0419 L 0.791412,-32.8338 L 0.681244,-32.6234 L 0.574448,-32.4109 L 0.471008,-32.1963 z
M 10.1973,-32.1989 L 10.0981,-32.4096 L 9.99469,-32.619 L 9.88716,-32.8269 L 9.77554,-33.0333 L 9.65994,-33.2379
 L 9.54041,-33.4408 L 9.41701,-33.6417 L 9.28979,-33.8407 L 9.15884,-34.0376 L 9.02425,-34.2322 L 8.88603,-34.4245
 L 8.74428,-34.6143 L 8.59908,-34.8016 L 8.45045,-34.9863 L 8.29849,-35.1682 L 8.14328,-35.3472 L 7.98485,-35.5233
 L 7.82329,-35.6963 L 7.65866,-35.866 L 7.49103,-36.0325 L 7.83943,-35.9456 L 8.18295,-35.8463 L 8.52133,-35.7348
 L 8.85434,-35.6113 L 9.18169,-35.4761 L 9.50314,-35.3294 L 9.81844,-35.1715 L 10.1273,-35.0025 L 10.4295,-34.8228
 L 10.7248,-34.6324 L 11.0129,-34.4318 L 11.2935,-34.221 L 11.5665,-34.0004 L 11.8315,-33.7701 L 12.0883,-33.5304
 L 12.3367,-33.2815 L 12.5763,-33.0237 L 12.8069,-32.7572 L 13.0283,-32.4822 L 13.2402,-32.1989 z
M 5.82607,-27.097 L 5.82607,-31.155 L 9.51877,-31.155 L 9.59361,-30.9641 L 9.66544,-30.772 L 9.73419,-30.5786
 L 9.79985,-30.384 L 9.86237,-30.1881 L 9.92168,-29.9909 L 9.97777,-29.7925 L 10.0306,-29.5928 L 10.0801,-29.3918
 L 10.1262,-29.1896 L 10.1689,-28.9861 L 10.2082,-28.7813 L 10.244,-28.5752 L 10.2762,-28.3679 L 10.3049,-28.1593
 L 10.3299,-27.9494 L 10.3513,-27.7382 L 10.369,-27.5257 L 10.3829,-27.312 L 10.393,-27.097 z
M -4.40392,-27.097 L -4.38869,-27.3163 L -4.3689,-27.5343 L -4.34456,-27.7508 L -4.31573,-27.9659 L -4.28244,-28.1795
 L -4.24475,-28.3914 L -4.20268,-28.6017 L -4.15628,-28.8102 L -4.10558,-29.017 L -4.05064,-29.2219 L -3.99149,-29.4249
 L -3.92816,-29.6259 L -3.86072,-29.8248 L -3.7892,-30.0217 L -3.71362,-30.2163 L -3.63405,-30.4088 L -3.55051,-30.5989
 L -3.46306,-30.7867 L -3.37172,-30.9721 L -3.27654,-31.155 L 0.0220947,-31.155 L -0.0482178,-30.9601 L -0.115173,-30.7643
 L -0.178757,-30.5677 L -0.238998,-30.3702 L -0.295914,-30.1719 L -0.349533,-29.9728 L -0.399887,-29.7729 L -0.446976,-29.5721
 L -0.490829,-29.3705 L -0.531479,-29.1681 L -0.568939,-28.9648 L -0.603226,-28.7606 L -0.634369,-28.5557 L -0.662384,-28.3498
 L -0.687286,-28.1432 L -0.709122,-27.9356 L -0.727875,-27.7272 L -0.743607,-27.518 L -0.756317,-27.3079 L -0.766037,-27.097
 z
M 0.275253,-27.097 L 0.285736,-27.3081 L 0.299927,-27.5188 L 0.317825,-27.7289 L 0.339355,-27.9384 L 0.364502,-28.1472
 L 0.393219,-28.3553 L 0.425476,-28.5625 L 0.461227,-28.7689 L 0.500427,-28.9744 L 0.54306,-29.1788 L 0.589081,-29.3822
 L 0.638458,-29.5845 L 0.691132,-29.7856 L 0.747086,-29.9855 L 0.80629,-30.1841 L 0.868683,-30.3812 L 0.934235,-30.577
 L 1.00291,-30.7712 L 1.07468,-30.9639 L 1.14951,-31.155 L 4.78481,-31.155 L 4.78481,-27.097 z
M 1.14951,-21.9663 L 1.07503,-22.1615 L 1.00354,-22.3578 L 0.935074,-22.5554 L 0.869675,-22.7541 L 0.807388,-22.9539
 L 0.748245,-23.1547 L 0.692291,-23.3565 L 0.639587,-23.5593 L 0.590149,-23.763 L 0.544052,-23.9676 L 0.501312,-24.173
 L 0.461975,-24.3793 L 0.426102,-24.5863 L 0.393707,-24.794 L 0.364868,-25.0024 L 0.339615,-25.2114 L 0.317978,-25.4211
 L 0.300003,-25.6312 L 0.285751,-25.8419 L 0.275253,-26.0531 L 4.78481,-26.0531 L 4.78481,-21.9663 z
M -3.27654,-21.9663 L -3.37172,-22.1537 L -3.46306,-22.343 L -3.55051,-22.5344 L -3.63405,-22.7278 L -3.71362,-22.923
 L -3.7892,-23.1201 L -3.86072,-23.3191 L -3.92816,-23.5198 L -3.99149,-23.7223 L -4.05064,-23.9265 L -4.10558,-24.1323
 L -4.15628,-24.3398 L -4.20268,-24.5489 L -4.24475,-24.7595 L -4.28244,-24.9716 L -4.31573,-25.1851 L -4.34456,-25.4001
 L -4.3689,-25.6164 L -4.38869,-25.8341 L -4.40392,-26.0531 L -0.765991,-26.0531 L -0.755707,-25.8419 L -0.742096,-25.6312
 L -0.725204,-25.4211 L -0.705078,-25.2114 L -0.681763,-25.0024 L -0.655289,-24.794 L -0.625702,-24.5863 L -0.593048,-24.3793
 L -0.557388,-24.173 L -0.518738,-23.9676 L -0.477142,-23.763 L -0.432663,-23.5593 L -0.38533,-23.3565 L -0.335205,-23.1547
 L -0.282303,-22.9539 L -0.226685,-22.7541 L -0.168381,-22.5554 L -0.107452,-22.3578 L -0.0439301,-22.1615 L 0.0221252,-21.9663
 z
M 31.5,-0.572495 L 30.5,-3.8725 L 29.5,-6.9525 L 28.5,-9.8125 L 27.5,-12.4525 L 26.5,-14.8725
 L 25.5,-17.0725 L 24.5,-19.0525 L 23.5,-20.8125 L 22.5,-22.3525 L 22.1545,-22.828 L 21.1545,-24.148
 L 20.1545,-25.248 L 19.1545,-26.128 L 18.1545,-26.788 L 17.1545,-27.228 L 16.1545,-27.448 L 15.1545,-27.448
 L 14.1545,-27.228 L 13.5955,-27.0464 L 12.5955,-26.6064 L 11.5955,-25.9464 L 10.5955,-25.0664 L 9.59549,-23.9664
 L 8.59549,-22.6464 L 7.59549,-21.1064 L 6.59549,-19.3464 L 5.81433,-17.7997 L 6.6545,-16.8755 L 7.6545,-15.5755
 L 8,-15.1 L 9,-13.6 L 10,-11.9 L 11,-10 L 12,-7.89999 L 13,-5.59999
 L 14,-3.09999 L 15,-0.399994 L 14.7798,-0.0969696 L 31.1545,-0.0969696 z
M 14.5,-0.399994 L 13.5,-3.09999 L 12.5,-5.59999 L 11.5,-7.89999 L 10.5,-10 L 9.5,-11.9
 L 8.5,-13.6 L 7.5,-15.1 L 7.1545,-15.5755 L 6.1545,-16.8755 L 5.1545,-17.9755 L 4.1545,-18.8755
 L 3.1545,-19.5755 L 2.1545,-20.0755 L 1.1545,-20.3755 L 0.154495,-20.4755 L -0.84549,-20.3755 L -1.84549,-20.0755
 L -2.4045,-19.8939 L -3.4045,-19.3939 L -4.4045,-18.6939 L -5.4045,-17.7939 L -6.4045,-16.6939 L -7.4045,-15.3939
 L -8.4045,-13.8939 L -9.4045,-12.1939 L -10.4045,-10.2939 L -11.4045,-8.19388 L -12.4045,-5.89389 L -13.4045,-3.39389
 L -14.4045,-0.693878 L -14.4045,-0.106094 L -13.8455,0.0755157 L 14.1545,0.0755157 z
M 0,-0 L 0,-7.5 L 0.502396,-9.375 L 1.875,-10.7476 L 3.75,-11.25 L 5.625,-10.7476
 L 6.99759,-9.375 L 7.5,-7.5 L 7.5,-0 z
" stroke="black" fill="lightgray" stroke-width="0.5"/>
</svg>
