<?xml version="1.0" standalone="no"?>
<!DOCTYPE svg PUBLIC "-//W3C//DTD SVG 1.1//EN" "http://www.w3.org/Graphics/SVG/1.1/DTD/svg11.dtd">
<svg width="47mm" height="39mm" viewBox="-15 -38 47 39" xmlns="http://www.w3.org/2000/svg" version="1.1">
<title>OpenSCAD Model</title>
<path d="
M 5.82867,-19.5681 L 5.82867,-21.425 L 6.8504,-21.425 L 7.09549,-21.8564 L 7.49153,-22.4663 L 5.82867,-22.4663
 L 5.82867,-26.5531 L 10.3956,-26.5531 L 10.3851,-26.3378 L 10.3709,-26.1235 L 10.3651,-26.0536 L 11.0955,-26.6964
 L 12.0955,-27.3564 L 12.6422,-27.597 L 11.4369,-27.597 L 11.4266,-27.8079 L 11.413,-28.018 L 11.3961,-28.2272
 L 11.376,-28.4356 L 11.3527,-28.6432 L 11.3262,-28.8498 L 11.2966,-29.0557 L 11.264,-29.2606 L 11.2283,-29.4648
 L 11.1897,-29.6681 L 11.1481,-29.8705 L 11.1036,-30.0721 L 11.0563,-30.2729 L 11.0061,-30.4728 L 10.9532,-30.6719
 L 10.8976,-30.8702 L 10.8393,-31.0677 L 10.7784,-31.2643 L 10.7149,-31.4601 L 10.6488,-31.655 L 13.89,-31.655
 L 13.9852,-31.4721 L 14.0766,-31.2867 L 14.164,-31.0989 L 14.2475,-30.9088 L 14.3271,-30.7163 L 14.4027,-30.5217
 L 14.4742,-30.3248 L 14.5417,-30.1259 L 14.605,-29.9249 L 14.6641,-29.7219 L 14.7191,-29.517 L 14.7698,-29.3102
 L 14.8162,-29.1017 L 14.8582,-28.8914 L 14.8959,-28.6795 L 14.9292,-28.4659 L 14.9581,-28.2508 L 14.964,-28.198
 L 15.6545,-28.198 L 16.0352,-28.1143 L 16.0275,-28.197 L 15.9942,-28.4772 L 15.9536,-28.7554 L 15.906,-29.0314
 L 15.8514,-29.3052 L 15.7898,-29.5764 L 15.7214,-29.8452 L 15.6462,-30.1111 L 15.5643,-30.3742 L 15.4758,-30.6342
 L 15.3808,-30.8911 L 15.2793,-31.1446 L 15.1714,-31.3947 L 15.0573,-31.6411 L 14.937,-31.8837 L 14.8106,-32.1224
 L 14.6781,-32.357 L 14.6738,-32.3654 L 14.6695,-32.3733 L 14.6652,-32.3808 L 14.6609,-32.3879 L 14.6566,-32.3947
 L 14.6524,-32.4011 L 14.6481,-32.4072 L 14.6439,-32.413 L 14.6396,-32.4185 L 14.6354,-32.4238 L 14.6312,-32.4289
 L 14.627,-32.4338 L 14.6229,-32.4386 L 14.6188,-32.4431 L 14.6106,-32.452 L 14.5986,-32.4649 L 14.5946,-32.4692
 L 14.3036,-32.9388 L 13.9894,-33.392 L 13.6527,-33.8279 L 13.2944,-34.2457 L 12.9153,-34.6446 L 12.5163,-35.0238
 L 12.0981,-35.3824 L 11.6615,-35.7195 L 11.2075,-36.0345 L 10.7368,-36.3264 L 10.2503,-36.5944 L 9.74875,-36.8377
 L 9.23297,-37.0554 L 8.7038,-37.2469 L 8.16206,-37.4111 L 7.6086,-37.5473 L 7.04419,-37.6547 L 6.4697,-37.7324
 L 5.88593,-37.7797 L 5.29369,-37.7956 L 4.70555,-37.7797 L 4.12543,-37.7324 L 3.55417,-37.6547 L 2.99257,-37.5473
 L 2.44145,-37.4111 L 1.90166,-37.2469 L 1.37399,-37.0554 L 0.859299,-36.8377 L 0.358368,-36.5944 L -0.127945,-36.3264
 L -0.598846,-36.0345 L -1.0535,-35.7195 L -1.49109,-35.3824 L -1.91078,-35.0238 L -2.31177,-34.6447 L -2.69322,-34.2458
 L -3.05432,-33.828 L -3.39424,-33.392 L -3.71216,-32.9389 L -4.00725,-32.4692 L -4.01155,-32.4647 L -4.01585,-32.4599
 L -4.02016,-32.4547 L -4.02446,-32.4493 L -4.02875,-32.4436 L -4.03302,-32.4378 L -4.03728,-32.4317 L -4.04153,-32.4256
 L -4.04999,-32.4131 L -4.05835,-32.4007 L -4.0625,-32.3945 L -4.06664,-32.3885 L -4.07072,-32.3826 L -4.0748,-32.377
 L -4.07884,-32.3715 L -4.08284,-32.3664 L -4.08682,-32.3615 L -4.09076,-32.357 L -4.22321,-32.1226 L -4.34964,-31.8845
 L -4.46994,-31.6427 L -4.58406,-31.3974 L -4.69189,-31.1487 L -4.79337,-30.8966 L -4.88838,-30.6411 L -4.97688,-30.3825
 L -5.05878,-30.1208 L -5.13399,-29.856 L -5.20242,-29.5882 L -5.26399,-29.3176 L -5.31863,-29.0442 L -5.36626,-28.7681
 L -5.40678,-28.4893 L -5.44012,-28.2081 L -5.46619,-27.9244 L -5.48491,-27.6383 L -5.49622,-27.3499 L -5.5,-27.0594
 L -5.46431,-26.1761 L -5.35909,-25.3126 L -5.1871,-24.4715 L -4.95113,-23.6557 L -4.65392,-22.8678 L -4.29826,-22.1107
 L -3.88693,-21.3871 L -3.42268,-20.6998 L -3.10165,-20.2953 L -2.4045,-20.6439 L -2.08971,-20.7462 L -2.19266,-20.8652
 L -2.41463,-21.1412 L -2.62672,-21.425 L 0.44487,-21.425 L 0.547958,-21.2104 L 0.56073,-21.1849 L 1.1545,-21.1255
 L 1.91963,-20.896 L 1.86488,-20.9894 L 1.7437,-21.2061 L 1.62709,-21.425 L 4.78481,-21.425 L 4.78481,-19.0582
 L 5.1545,-18.7255 L 5.31433,-18.5497 z
M 5.82867,-32.7276 L 5.82867,-36.6447 L 6.02956,-36.4783 L 6.22661,-36.3084 L 6.41977,-36.1352 L 6.60896,-35.9588
 L 6.79413,-35.7791 L 6.9752,-35.5963 L 7.1521,-35.4103 L 7.32475,-35.2212 L 7.4931,-35.0291 L 7.65709,-34.834
 L 7.81662,-34.6359 L 7.97165,-34.4349 L 8.12209,-34.231 L 8.26788,-34.0244 L 8.40897,-33.8149 L 8.54526,-33.6027
 L 8.6767,-33.3879 L 8.80322,-33.1704 L 8.92474,-32.9503 L 9.04121,-32.7276 z
M 1.62709,-32.725 L 1.74371,-32.9437 L 1.86494,-33.1599 L 1.99075,-33.3734 L 2.12108,-33.5844 L 2.25589,-33.7927
 L 2.39513,-33.9984 L 2.53876,-34.2014 L 2.68674,-34.4017 L 2.839,-34.5993 L 2.99553,-34.7942 L 3.15627,-34.9863
 L 3.32115,-35.1756 L 3.49017,-35.3621 L 3.66325,-35.5458 L 3.84038,-35.7266 L 4.02147,-35.9046 L 4.20651,-36.0797
 L 4.39545,-36.2518 L 4.58823,-36.4211 L 4.78481,-36.5874 L 4.78481,-32.725 z
M -2.62672,-32.6963 L -2.41461,-32.9842 L -2.19263,-33.2638 L -1.961,-33.5348 L -1.71999,-33.797 L -1.46985,-34.0499
 L -1.21085,-34.2934 L -0.943207,-34.5272 L -0.667191,-34.7511 L -0.383072,-34.9646 L -0.0910797,-35.1677 L 0.208511,-35.3599
 L 0.515488,-35.5411 L 0.829559,-35.7109 L 1.1505,-35.869 L 1.47804,-36.0153 L 1.81192,-36.1494 L 2.15192,-36.2711
 L 2.49774,-36.38 L 2.84918,-36.476 L 3.20595,-36.5586 L 3.03445,-36.3883 L 2.86676,-36.2154 L 2.70285,-36.04
 L 2.54271,-35.8621 L 2.38631,-35.6817 L 2.2336,-35.499 L 2.08458,-35.3138 L 1.93922,-35.1262 L 1.7975,-34.9362
 L 1.65938,-34.7439 L 1.52484,-34.5493 L 1.39386,-34.3523 L 1.26642,-34.1531 L 1.14247,-33.9516 L 1.022,-33.7479
 L 0.904999,-33.5419 L 0.791412,-33.3338 L 0.681244,-33.1234 L 0.574448,-32.9109 L 0.471008,-32.6963 z
M 10.1973,-32.6989 L 10.0981,-32.9096 L 9.99469,-33.119 L 9.88716,-33.3269 L 9.77554,-33.5333 L 9.65994,-33.7379
 L 9.54041,-33.9408 L 9.41701,-34.1417 L 9.28979,-34.3407 L 9.15884,-34.5376 L 9.02425,-34.7322 L 8.88603,-34.9245
 L 8.74428,-35.1143 L 8.59908,-35.3016 L 8.45045,-35.4863 L 8.29849,-35.6682 L 8.14328,-35.8472 L 7.98485,-36.0233
 L 7.82329,-36.1963 L 7.65866,-36.366 L 7.49103,-36.5325 L 7.83943,-36.4456 L 8.18295,-36.3463 L 8.52133,-36.2348
 L 8.85434,-36.1113 L 9.18169,-35.9761 L 9.50314,-35.8294 L 9.81844,-35.6715 L 10.1273,-35.5025 L 10.4295,-35.3228
 L 10.7248,-35.1324 L 11.0129,-34.9318 L 11.2935,-34.721 L 11.5665,-34.5004 L 11.8315,-34.2701 L 12.0883,-34.0304
 L 12.3367,-33.7815 L 12.5763,-33.5237 L 12.8069,-33.2572 L 13.0283,-32.9822 L 13.2402,-32.6989 z
M -4.40392,-27.597 L -4.38869,-27.8163 L -4.3689,-28.0343 L -4.34456,-28.2508 L -4.31573,-28.4659 L -4.28244,-28.6795
 L -4.24475,-28.8914 L -4.20268,-29.1017 L -4.15628,-29.3102 L -4.10558,-29.517 L -4.05064,-29.7219 L -3.99149,-29.9249
 L -3.92816,-30.1259 L -3.86072,-30.3248 L -3.7892,-30.5217 L -3.71362,-30.7163 L -3.63405,-30.9088 L -3.55051,-31.0989
 L -3.46306,-31.2867 L -3.37172,-31.4721 L -3.27654,-31.655 L 0.0220947,-31.655 L -0.0482178,-31.4601 L -0.115173,-31.2643
 L -0.178757,-31.0677 L -0.238998,-30.8702 L -0.295914,-30.6719 L -0.349533,-30.4728 L -0.399887,-30.2729 L -0.446976,-30.0721
 L -0.490829,-29.8705 L -0.531479,-29.6681 L -0.568939,-29.4648 L -0.603226,-29.2606 L -0.634369,-29.0557 L -0.662384,-28.8498
 L -0.687286,-28.6432 L -0.709122,-28.4356 L -0.727875,-28.2272 L -0.743607,-28.018 L -0.756317,-27.8079 L -0.766037,-27.597
 z
M 5.82607,-27.597 L 5.82607,-31.655 L 9.51877,-31.655 L 9.59361,-31.4641 L 9.66544,-31.272 L 9.73419,-31.0786
 L 9.79985,-30.884 L 9.86237,-30.6881 L 9.92168,-30.4909 L 9.97777,-30.2925 L 10.0306,-30.0928 L 10.0801,-29.8918
 L 10.1262,-29.6896 L 10.1689,-29.4861 L 10.2082,-29.2813 L 10.244,-29.0752 L 10.2762,-28.8679 L 10.3049,-28.6593
 L 10.3299,-28.4494 L 10.3513,-28.2382 L 10.369,-28.0257 L 10.3829,-27.812 L 10.393,-27.597 z
M 0.275253,-27.597 L 0.285736,-27.8081 L 0.299927,-28.0188 L 0.317825,-28.2289 L 0.339355,-28.4384 L 0.364502,-28.6472
 L 0.393219,-28.8553 L 0.425476,-29.0625 L 0.461227,-29.2689 L 0.500427,-29.4744 L 0.54306,-29.6788 L 0.589081,-29.8822
 L 0.638458,-30.0845 L 0.691132,-30.2856 L 0.747086,-30.4855 L 0.80629,-30.6841 L 0.868683,-30.8812 L 0.934235,-31.077
 L 1.00291,-31.2712 L 1.07468,-31.4639 L 1.14951,-31.655 L 4.78481,-31.655 L 4.78481,-27.597 z
M -3.27654,-22.4663 L -3.37172,-22.6537 L -3.46306,-22.843 L -3.55051,-23.0344 L -3.63405,-23.2278 L -3.71362,-23.423
 L -3.7892,-23.6201 L -3.86072,-23.8191 L -3.92816,-24.0198 L -3.99149,-24.2223 L -4.05064,-24.4265 L -4.10558,-24.6323
 L -4.15628,-24.8398 L -4.20268,-25.0489 L -4.24475,-25.2595 L -4.28244,-25.4716 L -4.31573,-25.6851 L -4.34456,-25.9001
 L -4.3689,-26.1164 L -4.38869,-26.3341 L -4.40392,-26.5531 L -0.765991,-26.5531 L -0.755707,-26.3419 L -0.742096,-26.1312
 L -0.725204,-25.9211 L -0.705078,-25.7114 L -0.681763,-25.5024 L -0.655289,-25.294 L -0.625702,-25.0863 L -0.593048,-24.8793
 L -0.557388,-24.673 L -0.518738,-24.4676 L -0.477142,-24.263 L -0.432663,-24.0593 L -0.38533,-23.8565 L -0.335205,-23.6547
 L -0.282303,-23.4539 L -0.226685,-23.2541 L -0.168381,-23.0554 L -0.107452,-22.8578 L -0.0439301,-22.6615 L 0.0221252,-22.4663
 z
M 1.14951,-22.4663 L 1.07503,-22.6615 L 1.00354,-22.8578 L 0.935074,-23.0554 L 0.869675,-23.2541 L 0.807388,-23.4539
 L 0.748245,-23.6547 L 0.692291,-23.8565 L 0.639587,-24.0593 L 0.590149,-24.263 L 0.544052,-24.4676 L 0.501312,-24.673
 L 0.461975,-24.8793 L 0.426102,-25.0863 L 0.393707,-25.294 L 0.364868,-25.5024 L 0.339615,-25.7114 L 0.317978,-25.9211
 L 0.300003,-26.1312 L 0.285751,-26.3419 L 0.275253,-26.5531 L 4.78481,-26.5531 L 4.78481,-22.4663 z
M 31.5,-0.572495 L 30.5,-3.8725 L 29.5,-6.9525 L 28.5,-9.8125 L 27.5,-12.4525 L 26.5,-14.8725
 L 25.5,-17.0725 L 24.5,-19.0525 L 23.5,-20.8125 L 22.5,-22.3525 L 22.1545,-22.828 L 21.1545,-24.148
 L 20.1545,-25.248 L 19.1545,-26.128 L 18.1545,-26.788 L 17.1545,-27.228 L 16.1545,-27.448 L 15.1545,-27.448
 L 14.1545,-27.228 L 13.5955,-27.0464 L 12.5955,-26.6064 L 11.5955,-25.9464 L 10.5955,-25.0664 L 9.59549,-23.9664
 L 8.59549,-22.6464 L 7.59549,-21.1064 L 6.59549,-19.3464 L 5.81433,-17.7997 L 6.6545,-16.8755 L 7.6545,-15.5755
 L 8,-15.1 L 9,-13.6 L 10,-11.9 L 11,-10 L 12,-7.89999 L 13,-5.59999
 L 14,-3.09999 L 15,-0.399994 L 14.7798,-0.0969696 L 31.1545,-0.0969696 z
M 14.5,-0.399994 L 13.5,-3.09999 L 12.5,-5.59999 L 11.5,-7.89999 L 10.5,-10 L 9.5,-11.9
 L 8.5,-13.6 L 7.5,-15.1 L 7.1545,-15.5755 L 6.1545,-16.8755 L 5.1545,-17.9755 L 4.1545,-18.8755
 L 3.1545,-19.5755 L 2.1545,-20.0755 L 1.1545,-20.3755 L 0.154495,-20.4755 L -0.84549,-20.3755 L -1.84549,-20.0755
 L -2.4045,-19.8939 L -3.4045,-19.3939 L -4.4045,-18.6939 L -5.4045,-17.7939 L -6.4045,-16.6939 L -7.4045,-15.3939
 L -8.4045,-13.8939 L -9.4045,-12.1939 L -10.4045,-10.2939 L -11.4045,-8.19388 L -12.4045,-5.89389 L -13.4045,-3.39389
 L -14.4045,-0.693878 L -14.4045,-0.106094 L -13.8455,0.0755157 L 14.1545,0.0755157 z
M -3.75,-0 L -3.75,-7.5 L -3.24759,-9.375 L -1.875,-10.7476 L 0,-11.25 L 1.875,-10.7476
 L 3.24759,-9.375 L 3.75,-7.5 L 3.75,-0 z
" stroke="black" fill="lightgray" stroke-width="0.5"/>
</svg>
